<!-- <?xml version="1.0" encoding="UTF-8" standalone="no"?> -->
<!-- Created with Inkscape (http://www.inkscape.org/) -->

<svg
   viewBox="0 0 437.03297 576.7637"
>
  <path
     d="m 21.36916,0 0.0117,8.9746 c 0.0332,37.89745 16.31464,82.17943 42.30664,115.06446 l 8.31445,10.51953 -9.19336,9.19336 C 43.17809,163.38238 22.17747,195.88773 6.73437,230.54687 L 0,245.66406 18.37109,227.80664 c 30.1812,-29.33684 57.50595,-49.85981 85.06055,-63.88868 12.4997,-6.36398 33.51122,-14.17819 34.76172,-12.92773 0.3582,0.35817 -4.03066,3.17292 -9.75196,6.25586 -52.6218,28.35514 -99.84935,84.30299 -118.21093,140.03515 -4.14851,12.59155 -9.14684,32 -8.24024,32 0.1951,10e-6 3.08432,-4.65065 6.41992,-10.33398 16.8325,-28.67931 47.48539,-57.68369 83.92969,-79.41797 16.8655,-10.05811 57.03125,-29.08771 57.03125,-27.01953 0,0.29761 -3.74873,2.65543 -8.33203,5.23828 -26.3783,14.86503 -52.24619,43.23081 -67.05859,73.5332 -10.77464,22.0423 -13.24672,32.85156 -13.26172,58 -0.0183,29.95209 4.80538,45.72931 19.83398,64.87305 16.2787,20.73596 40.82663,35.86761 103.48633,63.79102 56.022,24.96543 77.23635,37.63111 98.18945,58.62304 11.9335,11.95564 14.2834,15.11269 20,26.8711 l 6.47461,13.32422 1.67578,-3.91407 c 4.8534,-11.3426 6.23621,-20.3801 6.15821,-40.23632 -0.0911,-23.36179 -1.05057,-27.53233 -16.41797,-71.33204 -30.0688,-85.70131 -35.24867,-149.13517 -16.73047,-204.89648 12.7441,-38.37441 36.47575,-68.02097 75.31445,-94.08594 12.8519,-8.62503 36.986,-21.42382 50,-26.51562 4.3537,-1.70343 6.32496,-3.77808 10.72656,-11.29492 12.7216,-21.72531 16.71941,-34.96712 17.47461,-57.875 0.6676,-20.25426 -1.24146,-30.38188 -6.22656,-33.04688 -6.0198,-3.21815 -22.41704,-0.85983 -62.52344,8.99219 -20.8355,5.11818 -41.38491,9.70119 -45.66601,10.18555 -5.1662,0.58448 -7.78516,1.47981 -7.78516,2.6621 0,6.56386 -17.80882,17.73208 -32.57812,20.42969 -12.7926,2.33659 -47.1031,0.94951 -49.9668,-2.01953 -0.4332,-0.44915 2.21221,-3.49153 5.87891,-6.76172 9.3073,-8.30089 25.58726,-15.94357 38.66406,-18.15234 l 10.64453,-1.79883 -5.98828,-3.50781 c -8.9247,-5.22919 -20.08498,-7.64953 -35.26758,-7.64453 -16.8114,0.005 -30.55842,2.36499 -63.38672,10.87695 -30.8154,7.99007 -40.49713,8.91819 -61.23633,5.86719 C 85.37799,47.38621 52.91591,31.98773 31.03711,9.80273 Z"
     />
</svg>
